# xmcd
#
# Track frame offsets:
#	150
#	16677
#	33102
#	52295
#	67837
#	84315
#	97360
#	124592
#	146475
#	176430
#	191590
#	211695
#	227565
#	246522
#
# Disc length: 3520 seconds
#
# Revision: 0
# Processed by: cddbd v1.5.2PL0 Copyright (c) Steve Scherf et al.
# Submitted via: dBpowerAMP V4.0
#
DISCID=b70dbe0e
DTITLE=BluesTrain - Rock The Blues
DYEAR=2003
DGENRE=Blues
TTITLE0=Get Back To Austin
TTITLE1=Bad Luck On 8 Mile Road
TTITLE2=Whiskey Girl
TTITLE3=Little Blue Pill
TTITLE4=Dancin' With My Baby
TTITLE5=Texas Tea
TTITLE6=Thinking Man's Blues
TTITLE7=Rock The Blues
TTITLE8=Young Man With The Hat On
TTITLE9=Stone In My Shoe
TTITLE10=Muddy Water
TTITLE11=Going Downtown
TTITLE12=Come On Baby
TTITLE13=Storms Rainin' Down
EXTD=
EXTT0=
EXTT1=
EXTT2=
EXTT3=
EXTT4=
EXTT5=
EXTT6=
EXTT7=
EXTT8=
EXTT9=
EXTT10=
EXTT11=
EXTT12=
EXTT13=
PLAYORDER=
